<svg width="189" height="45" viewBox="0 0 189 45" fill="none" xmlns="http://www.w3.org/2000/svg">
<path d="M0 15C0 6.71573 6.71573 0 15 0H185C187.209 0 189 1.79086 189 4V30C189 38.2843 182.284 45 174 45H4C1.79086 45 0 43.2091 0 41V15Z" fill="#FCB326"/>
<path d="M33.194 32H38.628L31.296 22.692L38.368 13.748H33.142L27.058 21.756V13.748H22.612V32H27.058V23.94L33.194 32ZM40.6629 24.642C40.6629 29.686 43.9649 32.182 48.2029 32.182C52.4149 32.182 55.9509 29.686 55.9509 24.642V13.748H51.5049V24.668C51.5049 26.826 50.3869 28.074 48.2809 28.074C46.1749 28.074 45.1089 26.826 45.1089 24.668V13.748H40.6629V24.642ZM59.0729 13.748V32H69.3429V28.568H63.5189V13.748H59.0729ZM71.4636 32H75.9096V13.748H71.4636V32ZM91.0135 13.748V25.058L83.5775 13.748H79.1315V32H83.5775V20.742L91.0135 32H95.4595V13.748H91.0135ZM109.862 13.748H98.6823V32H109.862V28.438H103.128V24.434H109.082V21.002H103.128V17.31H109.862V13.748ZM122.395 19.676C122.395 21.106 121.615 21.964 119.951 21.964H117.195V17.44H119.951C121.615 17.44 122.395 18.324 122.395 19.676ZM112.749 13.748V32H117.195V25.11H118.261L122.057 32H127.075L122.863 24.772C125.671 23.94 126.919 21.782 126.919 19.494C126.919 16.322 124.683 13.748 120.211 13.748H112.749ZM142.164 32H146.87L140.266 13.748H135.118L128.514 32H133.168L134.26 28.776H141.072L142.164 32ZM139.928 25.344H135.43L137.666 18.662L139.928 25.344ZM160.762 13.748V25.058L153.326 13.748H148.88V32H153.326V20.742L160.762 32H165.208V13.748H160.762Z" fill="white"/>
</svg>
